<svg width="800" height="296" viewBox="0 0 800 296" xmlns="http://www.w3.org/2000/svg"><mask id="satori_om-id"><rect x="0" y="0" width="534" height="296" fill="#fff"/></mask><rect x="0" y="0" width="534" height="296" fill="#0F0F0F"/><mask id="satori_om-id-0"><rect x="64" y="48" width="406" height="200" fill="#fff"/></mask><g  ><path fill="#F2F2F0" d="M149.2 127.6L147.8 118L177.8 118L177.8 218L147.7 218L146.3 209Q142.6 214.2 136.9 217.4Q131.3 220.6 123.8 220.6L123.8 220.6Q112.6 220.6 102.8 216.4Q93.1 212.2 85.7 204.8Q78.3 197.3 74.2 187.6Q70 177.8 70 166.6L70 166.6Q70 155.9 73.9 146.6Q77.8 137.3 84.8 130.3Q91.9 123.2 101.2 119.2Q110.4 115.2 121 115.2L121 115.2Q129.6 115.2 136.7 118.8Q143.7 122.3 149.2 127.6L149.2 127.6ZM123 191.8L123 191.8Q129.2 191.8 134.3 188.6Q139.4 185.4 142.4 180Q145.4 174.6 145.4 168L145.4 168Q145.4 161.4 142.4 156Q139.4 150.6 134.3 147.4Q129.2 144.2 123 144.2L123 144.2Q116.8 144.2 111.8 147.4Q106.7 150.6 103.8 156Q100.8 161.4 100.8 168L100.8 168Q100.8 174.6 103.8 180Q106.8 185.4 111.8 188.6Q116.9 191.8 123 191.8ZM215.8 218L185.8 218L185.8 68L215.8 68L215.8 218ZM227.8 218L227.8 118L257.8 118L257.8 218L227.8 218ZM243 107.6L243 107.6Q236.5 107.6 232.1 103.3Q227.7 99 227.7 92.6L227.7 92.6Q227.7 86.3 232.1 81.9Q236.5 77.6 242.9 77.6L242.9 77.6Q249.2 77.6 253.6 81.9Q257.9 86.3 257.9 92.6L257.9 92.6Q257.9 99 253.7 103.3Q249.4 107.6 243 107.6ZM371.4 118L335 218L296.2 218L259.8 118L291.8 118L315.6 183.6L339.4 118L371.4 118ZM413.4 220.6L413.4 220.6Q399.6 220.6 388.3 213.5Q376.9 206.4 370.2 194.4Q363.4 182.4 363.4 167.9L363.4 167.9Q363.4 157 367.3 147.4Q371.2 137.9 378.1 130.6Q384.9 123.4 394.0 119.3Q403.1 115.2 413.4 115.2L413.4 115.2Q425.4 115.2 435.4 120.4Q445.3 125.7 452.2 134.6Q459.0 143.6 461.9 154.8Q464.8 166 462.5 177.9L462.5 177.9L395.8 177.9Q397.2 181.4 399.6 184.3Q401.9 187.1 405.4 188.8Q408.8 190.5 413.4 190.6L413.4 190.6Q417.8 190.7 421.6 188.7Q425.3 186.7 428.1 183.3L428.1 183.3L458.7 190.4Q452.6 203.7 440.5 212.2Q428.4 220.6 413.4 220.6ZM394.7 155.9L394.7 155.9L432.2 155.9Q430.8 151.6 428.0 148.3Q425.2 145 421.5 143.1Q417.7 141.2 413.4 141.2L413.4 141.2Q409.2 141.2 405.5 143.1Q401.7 145 399.0 148.3Q396.2 151.6 394.7 155.9Z "/></g></svg>