<svg width="640" height="200" viewBox="0 0 640 200" xmlns="http://www.w3.org/2000/svg"><mask id="satori_om-id"><rect x="0" y="0" width="406" height="200" fill="#fff"/></mask><mask id="satori_om-id-0"><rect x="0" y="0" width="406" height="200" fill="#fff"/></mask><g  ><path fill="#111111" d="M85.2 79.6L83.8 70L113.8 70L113.8 170L83.7 170L82.3 161Q78.6 166.2 73.0 169.4Q67.3 172.6 59.8 172.6L59.8 172.6Q48.6 172.6 38.9 168.4Q29.1 164.2 21.7 156.8Q14.3 149.3 10.2 139.6Q6 129.8 6 118.6L6 118.6Q6 107.9 9.9 98.6Q13.8 89.3 20.9 82.3Q27.9 75.2 37.1 71.2Q46.4 67.2 57 67.2L57 67.2Q65.6 67.2 72.7 70.8Q79.7 74.3 85.2 79.6L85.2 79.6ZM59 143.8L59 143.8Q65.2 143.8 70.3 140.6Q75.4 137.4 78.4 132Q81.4 126.6 81.4 120L81.4 120Q81.4 113.4 78.4 108Q75.4 102.6 70.3 99.4Q65.2 96.2 59 96.2L59 96.2Q52.8 96.2 47.8 99.4Q42.7 102.6 39.8 108Q36.8 113.4 36.8 120L36.8 120Q36.8 126.6 39.8 132Q42.8 137.4 47.9 140.6Q52.9 143.8 59 143.8ZM151.8 170L121.8 170L121.8 20L151.8 20L151.8 170ZM163.8 170L163.8 70L193.8 70L193.8 170L163.8 170ZM179 59.6L179 59.6Q172.5 59.6 168.1 55.3Q163.7 51 163.7 44.6L163.7 44.6Q163.7 38.3 168.1 33.9Q172.5 29.6 178.9 29.6L178.9 29.6Q185.2 29.6 189.6 33.9Q193.9 38.3 193.9 44.6L193.9 44.6Q193.9 51 189.7 55.3Q185.4 59.6 179 59.6ZM307.4 70L271 170L232.2 170L195.8 70L227.8 70L251.6 135.6L275.4 70L307.4 70ZM349.4 172.6L349.4 172.6Q335.6 172.6 324.3 165.5Q312.9 158.4 306.2 146.4Q299.4 134.4 299.4 119.9L299.4 119.9Q299.4 109 303.3 99.5Q307.2 89.9 314.1 82.6Q320.9 75.4 330.0 71.3Q339.1 67.2 349.4 67.2L349.4 67.2Q361.4 67.2 371.4 72.4Q381.3 77.7 388.2 86.6Q395.0 95.6 397.9 106.8Q400.8 118 398.5 129.9L398.5 129.9L331.8 129.9Q333.2 133.4 335.6 136.3Q337.9 139.1 341.4 140.8Q344.8 142.5 349.4 142.6L349.4 142.6Q353.8 142.7 357.6 140.7Q361.3 138.7 364.1 135.3L364.1 135.3L394.7 142.4Q388.6 155.7 376.5 164.2Q364.4 172.6 349.4 172.6ZM330.7 107.9L330.7 107.9L368.2 107.9Q366.8 103.6 364.0 100.3Q361.2 97 357.5 95.1Q353.7 93.2 349.4 93.2L349.4 93.2Q345.2 93.2 341.5 95.1Q337.7 97 335.0 100.3Q332.2 103.6 330.7 107.9Z "/></g></svg>